<svg xmlns="http://www.w3.org/2000/svg" viewBox="-9763 490 156 156">
  <defs>
    <style>
      .cls-1 {
        fill: #fa5048;
      }

      .cls-2 {
        fill: #fff;
      }
    </style>
  </defs>
  <g id="Group_341" data-name="Group 341" transform="translate(-10629)">
    <g id="Group_129" data-name="Group 129" transform="translate(-121 1)">
      <circle id="Ellipse_125" data-name="Ellipse 125" class="cls-1" cx="78" cy="78" r="78" transform="translate(987 489)"/>
    </g>
    <g id="list" transform="translate(862.938 525.681)">
      <g id="Group_340" data-name="Group 340">
        <path id="Path_1633" data-name="Path 1633" class="cls-2" d="M115.511,5.29H102.283A6.606,6.606,0,0,0,97,2.645H93.626a5.26,5.26,0,0,0-9.128,0H81.127A6.606,6.606,0,0,0,75.84,5.29H62.612A6.62,6.62,0,0,0,56,11.9V78.025a6.62,6.62,0,0,0,6.612,6.612h52.9a6.62,6.62,0,0,0,6.612-6.612V11.9A6.62,6.62,0,0,0,115.511,5.29ZM77.159,9.257A3.972,3.972,0,0,1,81.127,5.29h4.21a1.323,1.323,0,0,0,1.246-.879,2.622,2.622,0,0,1,4.957,0,1.323,1.323,0,0,0,1.246.879H97a3.972,3.972,0,0,1,3.967,3.967v3.967h-23.8Zm42.319,68.768a3.972,3.972,0,0,1-3.967,3.967h-52.9a3.972,3.972,0,0,1-3.967-3.967V11.9a3.972,3.972,0,0,1,3.967-3.967H74.648a6.617,6.617,0,0,0-.133,1.322v5.29a1.323,1.323,0,0,0,1.322,1.322h26.449a1.323,1.323,0,0,0,1.322-1.322V9.257a6.617,6.617,0,0,0-.133-1.322h12.035a3.972,3.972,0,0,1,3.967,3.967Z"/>
        <path id="Path_1634" data-name="Path 1634" class="cls-2" d="M142.221,64h-7.935a1.322,1.322,0,1,0,0,2.645H140.9v63.478H90.645V66.645h6.612a1.322,1.322,0,0,0,0-2.645H89.322A1.323,1.323,0,0,0,88,65.322v66.123a1.323,1.323,0,0,0,1.322,1.322h52.9a1.323,1.323,0,0,0,1.322-1.322V65.322A1.323,1.323,0,0,0,142.221,64Z" transform="translate(-26.71 -53.42)"/>
        <path id="Path_1635" data-name="Path 1635" class="cls-2" d="M249.322,32a1.321,1.321,0,1,0,.936.387A1.331,1.331,0,0,0,249.322,32Z" transform="translate(-160.261 -26.71)"/>
        <path id="Path_1636" data-name="Path 1636" class="cls-2" d="M128.387,171.032a1.322,1.322,0,0,0,0,1.87l3.967,3.967a1.323,1.323,0,0,0,1.87,0l6.612-6.612a1.322,1.322,0,0,0-1.87-1.87l-5.677,5.677-3.032-3.032A1.323,1.323,0,0,0,128.387,171.032Z" transform="translate(-60.097 -140.228)"/>
        <path id="Path_1637" data-name="Path 1637" class="cls-2" d="M140.837,256.387a1.322,1.322,0,0,0-1.87,0l-5.677,5.677-3.032-3.032a1.322,1.322,0,0,0-1.87,1.87l3.967,3.967a1.323,1.323,0,0,0,1.87,0l6.612-6.612A1.323,1.323,0,0,0,140.837,256.387Z" transform="translate(-60.098 -213.681)"/>
        <path id="Path_1638" data-name="Path 1638" class="cls-2" d="M138.967,344.387l-5.677,5.677-3.032-3.032a1.322,1.322,0,0,0-1.87,1.87l3.967,3.967a1.323,1.323,0,0,0,1.87,0l6.612-6.612a1.322,1.322,0,0,0-1.87-1.87Z" transform="translate(-60.098 -287.134)"/>
        <path id="Path_1639" data-name="Path 1639" class="cls-2" d="M233.322,186.645H255.8a1.322,1.322,0,1,0,0-2.645H233.322a1.322,1.322,0,0,0,0,2.645Z" transform="translate(-146.906 -153.583)"/>
        <path id="Path_1640" data-name="Path 1640" class="cls-2" d="M233.322,274.645H255.8a1.322,1.322,0,1,0,0-2.645H233.322a1.322,1.322,0,1,0,0,2.645Z" transform="translate(-146.906 -227.036)"/>
        <path id="Path_1641" data-name="Path 1641" class="cls-2" d="M233.322,362.645H255.8a1.322,1.322,0,1,0,0-2.645H233.322a1.322,1.322,0,1,0,0,2.645Z" transform="translate(-146.906 -300.489)"/>
      </g>
    </g>
    <path id="Path_1642" data-name="Path 1642" class="cls-2" d="M165.433,97.723h3.93v3.93A1.645,1.645,0,0,0,171,103.286h9.493a1.645,1.645,0,0,0,1.633-1.633v-3.93h3.93a1.645,1.645,0,0,0,1.633-1.633V86.6a1.645,1.645,0,0,0-1.633-1.633h-3.93v-3.93A1.645,1.645,0,0,0,180.49,79.4H171a1.645,1.645,0,0,0-1.633,1.633v3.93h-3.93A1.645,1.645,0,0,0,163.8,86.6V96.09A1.612,1.612,0,0,0,165.433,97.723Zm.561-10.514h3.93a1.645,1.645,0,0,0,1.633-1.633v-3.93h8.319v3.93a1.645,1.645,0,0,0,1.633,1.633h3.93v8.319h-3.93a1.645,1.645,0,0,0-1.633,1.633v3.93h-8.319v-3.93a1.645,1.645,0,0,0-1.633-1.633h-3.93Z" transform="translate(723.801 472.058)"/>
  </g>
</svg>
