<?xml version="1.0" encoding="utf-8"?>
<!-- Generator: Adobe Illustrator 19.0.1, SVG Export Plug-In . SVG Version: 6.00 Build 0)  -->
<svg version="1.1" id="Layer_1" xmlns="http://www.w3.org/2000/svg" xmlns:xlink="http://www.w3.org/1999/xlink" x="0px" y="0px"
	 viewBox="-229 320.3 152.7 152.7" style="enable-background:new -229 320.3 152.7 152.7;" xml:space="preserve">
<style type="text/css">
	.st0{fill:#F0524B;}
	.st1{fill:#FFFFFF;}
	.st2{fill:none;}
	.st3{fill:none;stroke:#FFFFFF;stroke-width:3;}
</style>
<g id="Group_339" transform="translate(-10629)">
	<g id="Group_338">
		<g id="Group_125" transform="translate(310 489.308)">
			<ellipse id="Ellipse_120" class="st0" cx="-152.6" cy="396.6" rx="76.4" ry="76.4"/>
		</g>
		<g id="browser" transform="translate(335.766 530.928)">
			<path id="Path_1627" class="st1" d="M-132.6,320.3h-94.8c-0.9,0-1.6,0.7-1.6,1.6v69.7c0,0.9,0.7,1.6,1.6,1.6c0,0,0,0,0,0h94.8
				c0.9,0,1.6-0.7,1.6-1.6l0,0v-69.7C-131,321-131.7,320.3-132.6,320.3z M-134.2,323.5v11.7h-91.6v-11.7L-134.2,323.5z M-225.8,390
				v-51.7h91.6V390H-225.8z"/>
			<path id="Path_1628" class="st1" d="M-206.5,333.8h67.5c0.9,0,1.6-0.7,1.6-1.6l0,0v-5.9c0-0.9-0.7-1.6-1.6-1.6l0,0h-67.5
				c-0.9,0-1.6,0.7-1.6,1.6v5.9C-208.1,333.1-207.4,333.8-206.5,333.8C-206.5,333.8-206.5,333.8-206.5,333.8z M-204.9,327.9h64.3
				v2.7h-64.3L-204.9,327.9z"/>
			<path id="Path_1629" class="st1" d="M-222.2,330.9c0.9,0,1.6-0.7,1.6-1.6s-0.7-1.6-1.6-1.6c-0.9,0-1.6,0.7-1.6,1.6
				c0,0.4,0.2,0.8,0.5,1.1C-223,330.7-222.6,330.9-222.2,330.9z"/>
			<path id="Path_1630" class="st1" d="M-217,330.9c0.9,0,1.6-0.7,1.6-1.6c0-0.9-0.7-1.6-1.6-1.6c-0.9,0-1.6,0.7-1.6,1.6
				c0,0.4,0.2,0.8,0.5,1.1C-217.8,330.7-217.4,330.9-217,330.9z"/>
			<path id="Path_1631" class="st1" d="M-211.9,330.9c0.9,0,1.6-0.7,1.6-1.6c0-0.9-0.7-1.6-1.6-1.6s-1.6,0.7-1.6,1.6
				C-213.5,330.2-212.8,330.9-211.9,330.9z"/>
			<g id="Rectangle_307" transform="translate(14.948 22.497)">
				<path class="st2" d="M-226,320.3h62.7c1.7,0,3,1.3,3,3v13.6c0,1.7-1.3,3-3,3H-226c-1.7,0-3-1.3-3-3v-13.6
					C-229,321.6-227.7,320.3-226,320.3z"/>
				<path class="st3" d="M-226,321.8h62.7c0.8,0,1.5,0.7,1.5,1.5v13.6c0,0.8-0.7,1.5-1.5,1.5H-226c-0.8,0-1.5-0.7-1.5-1.5v-13.6
					C-227.5,322.4-226.8,321.8-226,321.8z"/>
			</g>
		</g>
	</g>
	<path id="Rectangle_308" class="st1" d="M124.8,898.2h63.8c1,0,1.8,0.8,1.8,1.8l0,0c0,1-0.8,1.8-1.8,1.8h-63.8
		c-1,0-1.8-0.8-1.8-1.8l0,0C122.9,899.1,123.8,898.2,124.8,898.2z"/>
	<path id="Rectangle_309" class="st1" d="M124.8,904.4h63.8c1,0,1.8,0.8,1.8,1.8l0,0c0,1-0.8,1.8-1.8,1.8h-63.8
		c-1,0-1.8-0.8-1.8-1.8l0,0C122.9,905.2,123.8,904.4,124.8,904.4z"/>
	<path id="Rectangle_310" class="st1" d="M124.8,911.7h63.8c1,0,1.8,0.8,1.8,1.8l0,0c0,1-0.8,1.8-1.8,1.8h-63.8
		c-1,0-1.8-0.8-1.8-1.8l0,0C122.9,912.5,123.8,911.7,124.8,911.7z"/>
</g>
</svg>
